<svg width="116" height="34" viewBox="0 0 116 34" fill="none" xmlns="http://www.w3.org/2000/svg">
<g clip-path="url(#clip0_77_16)">
<mask id="mask0_77_16" style="mask-type:luminance" maskUnits="userSpaceOnUse" x="0" y="0" width="40" height="33">
<path d="M12.5424 32.6002V18.4113L0.149689 0.0748291H14.7315L19.7522 7.45307L24.7667 0.0748291H39.3486L26.9496 18.4113V32.6002H12.5424Z" fill="white"/>
</mask>
<g mask="url(#mask0_77_16)">
<mask id="mask1_77_16" style="mask-type:luminance" maskUnits="userSpaceOnUse" x="-17" y="-275" width="179" height="438">
<path d="M161.217 162.103L161.217 -274.517H-16.3033L-16.3033 162.103H161.217Z" fill="white"/>
</mask>
<g mask="url(#mask1_77_16)">
<path d="M161.617 157.781L161.617 -279.806H-16.3033L-16.3033 157.781H161.617Z" fill="#F499C1" stroke="#010101" stroke-width="0.25" stroke-miterlimit="10"/>
<path d="M160.369 118.75C171.876 114.728 179.217 103.37 183.427 91.9317C188.236 78.8654 190.101 64.9322 191.647 51.0926C194.354 26.8997 196.182 2.61319 197.41 -21.6982C198.714 -47.4628 199.013 -74.6931 186.521 -97.2582C183.483 -102.747 179.754 -107.792 175.7 -112.588C186.938 -111.453 166.906 -125.542 166.625 -130.014C166.257 -135.908 172.668 -140.218 174.677 -145.769C177.184 -152.679 178.038 -160.051 179.267 -167.298C182.167 -184.431 187.213 -201.14 190.225 -218.254C193.238 -235.368 194.136 -253.299 188.841 -269.852C183.546 -286.404 171.178 -301.398 154.507 -306.325C145.338 -309.032 135.553 -308.595 126.041 -307.629C94.3081 -304.404 63.1236 -295.554 31.2219 -295.373C22.4653 -295.323 13.6588 -295.928 4.97705 -294.774C-0.954241 -293.982 -6.75455 -292.379 -12.4551 -290.558C-14.0143 -290.059 -15.6172 -289.517 -16.8396 -288.431C-20.4882 -285.182 -18.9664 -279.151 -16.4467 -274.96C-11.8127 -267.263 -4.90843 -261.232 0.686062 -254.197C8.15162 -244.817 13.2596 -233.578 15.4301 -221.79C16.8084 -214.293 17.0579 -206.447 20.2512 -199.525C24.5359 -190.238 33.6293 -183.926 43.2404 -180.427C47.6561 -178.818 52.2714 -177.695 56.4252 -175.512C63.5228 -171.783 68.6869 -165.296 73.9758 -159.265C82.4455 -149.611 92.3934 -140.436 103.657 -134.555C100.327 -131.492 95.6178 -130.239 91.0774 -129.765C79.4518 -128.542 67.8262 -131.274 56.3503 -133.482C44.8682 -135.69 32.8497 -137.355 21.6296 -134.081C10.4031 -130.819 0.205822 -121.333 -0.324314 -109.651C-0.679817 -101.805 3.24319 -94.1709 2.51347 -86.3499C1.82118 -78.9279 -2.89392 -72.61 -6.64229 -66.1673C-14.6193 -52.4586 -26.1825 -30.5671 -17.3885 -17.3698C-11.7628 -8.94379 5.66934 -7.93338 15.1868 -4.46567C25.3779 -0.748505 36.0181 1.9209 46.8516 2.5321C55.1653 2.99988 63.6226 2.27014 71.7492 4.10379C89.1689 8.04553 102.31 23.6627 107.181 40.8453C111.297 55.3524 110.381 70.8885 114.141 85.489C116.805 95.836 122.019 105.803 130.32 112.526C138.621 119.249 150.284 122.28 160.369 118.75Z" fill="#E12590" stroke="#010101" stroke-width="0.25" stroke-miterlimit="10"/>
<path d="M73.7638 33.8039C70.8636 34.7394 67.9198 35.5565 64.976 36.2114C58.895 37.5772 52.8016 38.3194 47.0324 38.3194C42.7414 38.3194 38.5877 37.6396 34.6085 36.4671C10.3595 29.3445 -7.24103 3.42401 -7.24103 -6.24318C-7.24103 -6.72966 -7.20361 -7.24732 -7.14747 -7.78369H-18.9477V44.232H73.7638V33.8039Z" fill="#00B8E4" stroke="#010101" stroke-width="0.25" stroke-miterlimit="10"/>
<path d="M64.976 36.2114C67.9198 35.5503 70.8574 34.7395 73.7637 33.8039C96.5222 26.4506 116.886 10.9582 116.886 -6.34919C116.886 -6.62986 116.861 -6.8918 116.854 -7.17246C116.854 -7.24107 116.848 -7.30968 116.842 -7.37828H66.2421C65.2005 -7.25354 64.1402 -7.17246 63.0675 -7.17246C61.9947 -7.17246 60.9157 -7.25354 59.8555 -7.37828L56.8992 -7.78992H-7.14747C-7.20361 -7.25354 -7.24103 -6.73588 -7.24103 -6.2494C-7.24103 3.41778 10.3595 29.3383 34.6148 36.4608C38.5939 37.6271 42.7477 38.3132 47.0387 38.3132C52.8078 38.3132 58.895 37.571 64.9822 36.2051L64.976 36.2114Z" fill="#E12590" stroke="#010101" stroke-width="0.25" stroke-miterlimit="10"/>
<path d="M34.9328 35.5441C43.4925 35.5441 50.4315 28.6051 50.4315 20.0454C50.4315 11.4857 43.4925 4.54675 34.9328 4.54675C26.3732 4.54675 19.4342 11.4857 19.4342 20.0454C19.4342 28.6051 26.3732 35.5441 34.9328 35.5441Z" fill="#00B8E4" stroke="#010101" stroke-width="0.25" stroke-miterlimit="10"/>
<path d="M59.7557 21.3551C48.5542 21.3551 39.4795 15.0309 39.4795 15.0309C39.4795 15.0309 48.5605 8.70667 59.7557 8.70667C63.3606 8.70667 66.7535 9.36154 69.6848 10.2534C75.8593 12.1245 80.0318 15.0309 80.0318 15.0309C80.0318 15.0309 70.9509 21.3551 59.7557 21.3551Z" fill="#F499C1" stroke="#010101" stroke-width="0.25" stroke-miterlimit="10"/>
<path d="M-9.46136 69.0673L-9.81063 67.0528C-9.82934 66.9467 -9.84182 66.8345 -9.84182 66.7284V66.2045C-9.84182 65.8054 -9.96032 65.4124 -10.1724 65.0757L-11.2825 63.2794C-12.2305 61.7452 -12.7794 59.9926 -12.8667 58.1901C-13.0413 54.4792 -12.4987 47.8868 -7.98946 40.4524C-3.11844 32.413 4.56541 28.727 6.21819 28.0036C6.44895 27.9038 6.66101 27.779 6.86683 27.6356L8.70047 26.3134C9.14329 25.9953 9.66095 25.8082 10.2036 25.7708L10.3158 27.1179C10.3158 27.1179 11.164 38.045 6.73585 50.1009C3.87312 57.8908 -4.25356 63.6037 -6.97908 65.3438C-7.58406 65.7305 -8.07054 66.2731 -8.38862 66.9155L-9.4676 69.0735L-9.46136 69.0673Z" fill="#E12590" stroke="#010101" stroke-width="0.25" stroke-miterlimit="10"/>
</g>
<path d="M161.217 162.103L161.217 -274.517H-16.3033L-16.3033 162.103H161.217Z" stroke="#010101" stroke-width="0.25" stroke-miterlimit="10"/>
</g>
<path d="M12.5424 32.6002V18.4113L0.149689 0.0748291H14.7315L19.7522 7.45307L24.7667 0.0748291H39.3486L26.9496 18.4113V32.6002H12.5424Z" stroke="#010101" stroke-width="0.25" stroke-miterlimit="10"/>
<mask id="mask2_77_16" style="mask-type:luminance" maskUnits="userSpaceOnUse" x="41" y="0" width="34" height="34">
<path d="M74.1879 14.8812C74.1879 21.2554 72.7035 25.4029 69.6911 28.4153C66.2857 31.8207 61.8762 33.1741 57.9906 33.1741C53.8868 33.1741 49.39 31.6024 46.1593 28.3717C42.7539 24.9663 41.8371 20.3822 41.8371 14.2264V0.124756H56.2443V15.1869C56.2443 17.3698 56.3316 18.8978 57.947 18.8978C59.3877 18.8978 59.7806 17.8937 59.7806 13.8334V0.124756H74.1879V14.8812Z" fill="white"/>
</mask>
<g mask="url(#mask2_77_16)">
<mask id="mask3_77_16" style="mask-type:luminance" maskUnits="userSpaceOnUse" x="-17" y="-275" width="178" height="438">
<path d="M160.825 162.153L160.825 -274.467H-16.6962L-16.6962 162.153H160.825Z" fill="white"/>
</mask>
<g mask="url(#mask3_77_16)">
<path d="M161.224 157.831L161.224 -279.756H-16.6962L-16.6962 157.831H161.224Z" fill="#00B8E4" stroke="#010101" stroke-width="0.25" stroke-miterlimit="10"/>
<path d="M159.976 118.8C171.483 114.778 178.824 103.42 183.034 91.9817C187.843 78.9154 189.708 64.9821 191.254 51.1425C193.961 26.9496 195.789 2.66312 197.017 -21.6483C198.321 -47.4129 198.62 -74.6432 186.128 -97.2083C183.09 -102.697 179.361 -107.742 175.307 -112.539C186.546 -111.403 166.513 -125.493 166.232 -129.964C165.864 -135.858 172.275 -140.168 174.284 -145.719C176.791 -152.629 177.645 -160.001 178.874 -167.249C181.774 -184.381 186.82 -201.09 189.832 -218.204C192.845 -235.318 193.743 -253.249 188.448 -269.802C183.153 -286.354 170.785 -301.348 154.114 -306.275C144.945 -308.982 135.16 -308.545 125.648 -307.579C93.9152 -304.354 62.7307 -295.504 30.829 -295.323C22.0724 -295.273 13.2659 -295.878 4.58412 -294.724C-1.34716 -293.932 -7.14748 -292.329 -12.848 -290.508C-14.4072 -290.009 -16.0101 -289.467 -17.2325 -288.381C-20.8811 -285.132 -19.3593 -279.101 -16.8396 -274.91C-12.2056 -267.213 -5.30136 -261.182 0.293139 -254.147C7.7587 -244.767 12.8667 -233.528 15.0372 -221.74C16.4155 -214.244 16.665 -206.398 19.8583 -199.475C24.143 -190.188 33.2364 -183.876 42.8475 -180.377C47.2632 -178.768 51.8785 -177.645 56.0323 -175.463C63.1298 -171.733 68.294 -165.247 73.5829 -159.215C82.0526 -149.561 92.0004 -140.386 103.264 -134.505C99.9338 -131.443 95.2249 -130.189 90.6844 -129.715C79.0589 -128.492 67.4333 -131.224 55.9574 -133.432C44.4753 -135.64 32.4568 -137.305 21.2366 -134.031C10.0102 -130.769 -0.187103 -121.283 -0.711002 -109.601C-1.06651 -101.755 2.8565 -94.121 2.12679 -86.2999C1.43449 -78.878 -3.2806 -72.56 -7.02898 -66.1173C-15.006 -52.4086 -26.5692 -30.5172 -17.7751 -17.3199C-12.1557 -8.89386 5.27642 -7.88971 14.7939 -4.41574C24.985 -0.698578 35.6251 1.97083 46.4586 2.58203C54.7724 3.0498 63.2296 2.3201 71.3563 4.15375C88.776 8.09546 101.917 23.7126 106.788 40.8953C110.904 55.4023 109.988 70.9384 113.748 85.539C116.412 95.886 121.626 105.853 129.927 112.576C138.228 119.299 149.891 122.33 159.976 118.8Z" fill="#E12590" stroke="#010101" stroke-width="0.25" stroke-miterlimit="10"/>
<path d="M73.3708 33.8538C70.4707 34.7894 67.5269 35.6064 64.583 36.2613C58.5021 37.6272 52.4086 38.3694 46.6395 38.3694C42.3485 38.3694 38.1947 37.6895 34.2156 36.517C9.9728 29.3945 -7.63396 3.47393 -7.63396 -6.19325C-7.63396 -6.67973 -7.59653 -7.19739 -7.5404 -7.73376H-19.3406V44.2819H73.3708V33.8538Z" fill="#00B8E4" stroke="#010101" stroke-width="0.25" stroke-miterlimit="10"/>
<path d="M64.5893 36.2613C67.5331 35.6002 70.4707 34.7894 73.3771 33.8539C96.1355 26.5006 116.499 11.0081 116.499 -6.29927C116.499 -6.57993 116.474 -6.84188 116.468 -7.12254C116.468 -7.19114 116.462 -7.25975 116.455 -7.32836H65.8554C64.8138 -7.20362 63.7535 -7.12254 62.6808 -7.12254C61.608 -7.12254 60.5291 -7.20362 59.4688 -7.32836L56.5125 -7.73999H-7.5404C-7.59654 -7.20362 -7.63396 -6.68595 -7.63396 -6.19948C-7.63396 3.46771 9.96656 29.3882 34.2218 36.5108C38.201 37.6771 42.3548 38.3631 46.6457 38.3631C52.4149 38.3631 58.5021 37.6209 64.5893 36.2551V36.2613Z" fill="#E12590" stroke="#010101" stroke-width="0.25" stroke-miterlimit="10"/>
<path d="M87.0421 -1.24111C87.0421 -1.69017 87.0608 -2.12675 87.067 -2.57581C81.4289 -1.77125 68.4936 0.149717 68.5185 0.910618C68.6245 4.25359 68.7867 7.55291 69.005 10.7961C69.0611 11.6381 78.984 11.7004 88.0587 11.5819C87.3976 7.43441 87.0421 3.14966 87.0421 -1.24111Z" fill="#00B8E4" stroke="#010101" stroke-width="0.25" stroke-miterlimit="10"/>
<path d="M102.834 46.072C96.0045 37.7208 90.9963 27.0993 88.6076 15.1931C79.6389 17.4072 69.741 20.0517 69.8407 20.9435C70.084 23.2325 70.3522 25.484 70.6515 27.7043C70.7389 28.3592 83.5183 26.0515 89.9298 24.8541C90.2728 24.7917 90.4038 25.2782 90.0732 25.3967C83.8301 27.6295 71.3002 32.1949 71.4 32.8186C72.217 37.989 73.19 42.9411 74.3001 47.6374C78.2855 49.2466 82.5079 50.1197 86.8862 50.1197C92.5181 50.1197 97.8943 48.6728 102.828 46.072H102.834Z" fill="#00B8E4" stroke="#010101" stroke-width="0.25" stroke-miterlimit="10"/>
<path d="M34.5399 35.594C43.0996 35.594 50.0386 28.655 50.0386 20.0954C50.0386 11.5357 43.0996 4.59668 34.5399 4.59668C25.9802 4.59668 19.0412 11.5357 19.0412 20.0954C19.0412 28.655 25.9802 35.594 34.5399 35.594Z" fill="#F5E885" stroke="#010101" stroke-width="0.25" stroke-miterlimit="10"/>
<path d="M58.421 34.9765V21.8665C58.421 21.43 58.7765 21.0807 59.2068 21.0807C59.6372 21.0807 59.9927 21.4362 59.9927 21.8665V34.9765C59.9927 35.4131 59.6372 35.7623 59.2068 35.7623C58.7765 35.7623 58.421 35.4068 58.421 34.9765Z" fill="#EC9BC3" stroke="#010101" stroke-width="0.25" stroke-miterlimit="10"/>
<path d="M61.3211 21.5484C61.3211 21.2116 61.5394 20.8998 61.8762 20.7938C62.2941 20.6628 62.7369 20.8935 62.8617 21.3114L66.7784 33.8164C66.9032 34.2405 66.6786 34.6771 66.2608 34.8018C65.8429 34.9328 65.4001 34.702 65.2753 34.2842L61.3586 21.7792C61.3336 21.6981 61.3211 21.6233 61.3211 21.5422V21.5484Z" fill="#EC9BC3" stroke="#010101" stroke-width="0.25" stroke-miterlimit="10"/>
<path d="M51.6041 34.0597C51.6041 33.9849 51.6165 33.9038 51.6415 33.8227L55.5583 21.3178C55.6892 20.8999 56.132 20.6691 56.5437 20.8001C56.9553 20.9311 57.1923 21.3614 57.0613 21.7855L53.1446 34.2905C53.0136 34.7084 52.5708 34.9391 52.1591 34.8082C51.8223 34.7021 51.6041 34.3903 51.6041 34.0535V34.0597Z" fill="#EC9BC3" stroke="#010101" stroke-width="0.25" stroke-miterlimit="10"/>
<path d="M59.3628 21.405C48.1613 21.405 39.0866 15.0808 39.0866 15.0808C39.0866 15.0808 48.1675 8.75659 59.3628 8.75659C62.9677 8.75659 66.3606 9.41147 69.2919 10.3033C75.4664 12.1744 79.6389 15.0808 79.6389 15.0808C79.6389 15.0808 70.558 21.405 59.3628 21.405Z" fill="#EC9BC3" stroke="#010101" stroke-width="0.25" stroke-miterlimit="10"/>
<path d="M59.7494 21.0933C62.9839 21.0933 65.6059 18.4712 65.6059 15.2368C65.6059 12.0024 62.9839 9.38037 59.7494 9.38037C56.515 9.38037 53.893 12.0024 53.893 15.2368C53.893 18.4712 56.515 21.0933 59.7494 21.0933Z" fill="#00B8E4" stroke="#010101" stroke-width="0.25" stroke-miterlimit="10"/>
<path d="M59.7494 17.4695C60.9826 17.4695 61.9823 16.4699 61.9823 15.2367C61.9823 14.0036 60.9826 13.0039 59.7494 13.0039C58.5163 13.0039 57.5166 14.0036 57.5166 15.2367C57.5166 16.4699 58.5163 17.4695 59.7494 17.4695Z" fill="#E12590" stroke="#010101" stroke-width="0.25" stroke-miterlimit="10"/>
</g>
<path d="M160.825 162.153L160.825 -274.467H-16.6962L-16.6962 162.153H160.825Z" stroke="#010101" stroke-width="0.25" stroke-miterlimit="10"/>
</g>
<path d="M74.1879 14.8812C74.1879 21.2554 72.7035 25.4029 69.6911 28.4153C66.2857 31.8207 61.8762 33.1741 57.9906 33.1741C53.8868 33.1741 49.39 31.6024 46.1593 28.3716C42.7539 24.9663 41.8371 20.3822 41.8371 14.2264V0.124756H56.2443V15.1869C56.2443 17.3698 56.3316 18.8978 57.947 18.8978C59.3877 18.8978 59.7806 17.8937 59.7806 13.8334V0.124756H74.1879V14.8812Z" stroke="#010101" stroke-width="0.25" stroke-miterlimit="10"/>
<mask id="mask4_77_16" style="mask-type:luminance" maskUnits="userSpaceOnUse" x="78" y="0" width="38" height="33">
<path d="M78.248 0.124756H91.4952L97.0834 6.89179L102.672 0.124756H115.919V32.6439H102.26V16.3594L97.0834 22.6462L91.9068 16.3594V32.6439H78.248V0.124756Z" fill="white"/>
</mask>
<g mask="url(#mask4_77_16)">
<mask id="mask5_77_16" style="mask-type:luminance" maskUnits="userSpaceOnUse" x="-14" y="-275" width="169" height="438">
<path d="M154.893 162.153L154.893 -274.467H-13.4592L-13.4592 162.153H154.893Z" fill="white"/>
</mask>
<g mask="url(#mask5_77_16)">
<path d="M155.274 157.831L155.274 -279.756H-13.4592L-13.4592 157.831H155.274Z" fill="#F499C1" stroke="#010101" stroke-width="0.25" stroke-miterlimit="10"/>
<path d="M154.095 118.8C165.003 114.778 171.97 103.42 175.962 91.9817C180.527 78.9154 182.292 64.9821 183.758 51.1425C186.321 26.9496 188.061 2.66312 189.227 -21.6483C190.462 -47.4129 190.749 -74.6432 178.899 -97.2083C176.018 -102.697 172.481 -107.742 168.639 -112.539C179.298 -111.403 160.301 -125.493 160.032 -129.964C159.683 -135.858 165.764 -140.168 167.673 -145.719C170.049 -152.629 170.86 -160.001 172.026 -167.249C174.777 -184.381 179.56 -201.09 182.417 -218.204C185.273 -235.318 186.128 -253.249 181.101 -269.802C176.08 -286.354 164.348 -301.348 148.544 -306.275C139.85 -308.982 130.569 -308.545 121.551 -307.579C91.4516 -304.354 61.8825 -295.504 31.6273 -295.323C23.3198 -295.273 14.9685 -295.878 6.73585 -294.724C1.11017 -293.932 -4.38453 -292.329 -9.79192 -290.508C-11.2701 -290.009 -12.7919 -289.467 -13.9519 -288.381C-17.4134 -285.132 -15.9727 -279.101 -13.584 -274.91C-9.18694 -267.213 -2.64444 -261.182 2.66316 -254.147C9.74203 -244.767 14.5881 -233.528 16.6463 -221.74C17.9498 -214.244 18.193 -206.398 21.2179 -199.475C25.2781 -190.188 33.9038 -183.876 43.0221 -180.377C47.2071 -178.768 51.5854 -177.645 55.5271 -175.463C62.2629 -171.733 67.1526 -165.247 72.1671 -159.215C80.2002 -149.561 89.6304 -140.386 100.314 -134.505C97.1521 -131.443 92.6927 -130.189 88.383 -129.715C77.3562 -128.492 66.3356 -131.224 55.446 -133.432C44.5626 -135.64 33.1616 -137.305 22.5152 -134.031C11.875 -130.756 2.20163 -121.27 1.70267 -109.595C1.36588 -101.749 5.08931 -94.1147 4.39701 -86.2937C3.74214 -78.8718 -0.729713 -72.5538 -4.29098 -66.1111C-11.8563 -52.4024 -22.8208 -30.5109 -14.4821 -17.3137C-9.15576 -8.89383 7.37825 -7.88971 16.403 -4.41574C26.0702 -0.698578 36.1615 1.97083 46.4337 2.58203C54.3233 3.0498 62.3378 2.3201 70.0466 4.15375C86.5681 8.09546 99.0294 23.7126 103.651 40.8953C107.555 55.4023 106.682 70.9384 110.25 85.539C112.776 95.886 117.721 105.853 125.592 112.576C133.47 119.299 144.521 122.33 154.089 118.8H154.095Z" fill="#E12590" stroke="#010101" stroke-width="0.25" stroke-miterlimit="10"/>
<path d="M63.6288 36.2613C66.4229 35.6002 69.2108 34.7894 71.9613 33.8539C93.5409 26.5006 112.857 11.0081 112.857 -6.29927C112.857 -6.57993 112.832 -6.84188 112.832 -7.12254C112.832 -7.19114 112.825 -7.25975 112.819 -7.32836H64.8263C63.8346 -7.20362 62.8367 -7.12254 61.8139 -7.12254C60.791 -7.12254 59.7682 -7.20362 58.7703 -7.32836L55.9637 -7.73999H-4.77122C-4.82736 -7.20362 -4.86478 -6.68595 -4.86478 -6.19948C-4.86478 3.46771 11.8314 29.3882 34.8268 36.5108C38.6001 37.6771 42.5419 38.3631 46.6083 38.3631C52.0781 38.3631 57.8534 37.6209 63.6226 36.2551L63.6288 36.2613Z" fill="#E12590" stroke="#010101" stroke-width="0.25" stroke-miterlimit="10"/>
<path d="M84.9278 -0.642355C84.9278 -1.09141 84.9465 -1.52799 84.9527 -1.97705C79.6015 -1.17249 67.3397 0.748472 67.3585 1.50937C67.4582 4.85235 67.6142 8.15166 67.82 11.3948C67.8761 12.2368 77.2876 12.2992 85.8883 12.1807C85.2583 8.03316 84.9216 3.74842 84.9216 -0.642355H84.9278Z" fill="#00B8E4" stroke="#010101" stroke-width="0.25" stroke-miterlimit="10"/>
<path d="M99.8963 46.072C93.4162 37.7208 88.6699 27.0993 86.4059 15.1931C77.8988 17.4072 68.5185 20.0517 68.6058 20.9435C68.8366 23.2325 69.0923 25.484 69.3792 27.7043C69.4603 28.3592 81.5786 26.0515 87.6596 24.8541C87.9839 24.7917 88.1086 25.2782 87.7968 25.3967C81.878 27.6295 69.9904 32.1949 70.084 32.8186C70.8574 37.989 71.7804 42.9411 72.8345 47.6374C76.614 49.2466 80.6181 50.1197 84.7719 50.1197C90.1169 50.1197 95.2124 48.6728 99.8901 46.072H99.8963Z" fill="#00B8E4" stroke="#010101" stroke-width="0.25" stroke-miterlimit="10"/>
<path d="M103.907 43.0533C98.0066 34.9641 93.6719 24.9227 91.5327 13.7399C91.4266 13.1848 91.3331 12.6297 91.2395 12.0684C90.4599 7.47808 90.0358 2.71309 90.0358 -2.18287C90.0358 -3.94791 90.1044 -5.69424 90.2104 -7.4281H84.5972C84.4663 -5.78156 84.3977 -4.11631 84.3665 -2.43859C84.5037 -2.43859 84.6596 -2.42611 84.7906 -2.41988C85.0089 -2.41364 85.0213 -2.07685 84.8093 -2.04566C84.6721 -2.02695 84.5099 -2.002 84.3602 -1.97706C84.354 -1.53424 84.3353 -1.09142 84.3353 -0.64236C84.3353 3.74841 84.6721 8.03316 85.302 12.1807C85.4579 13.1973 85.6326 14.2014 85.8197 15.2056C88.0837 27.1118 92.8299 37.7332 99.3101 46.0844C100.894 45.205 102.435 44.2009 103.913 43.0596L103.907 43.0533Z" fill="#E12590" stroke="#010101" stroke-width="0.25" stroke-miterlimit="10"/>
<path d="M98.0627 11.9C96.6219 11.9437 94.4141 12.006 91.832 12.0622C91.9256 12.6235 92.0191 13.1786 92.1252 13.7337C94.6012 13.11 96.7217 12.5923 98.1063 12.2555C98.3121 12.2056 98.2747 11.8875 98.0627 11.8938V11.9Z" fill="#00B8E4" stroke="#010101" stroke-width="0.25" stroke-miterlimit="10"/>
<path d="M128.667 13.4281C130.133 8.03316 130.969 2.28274 131.168 -3.67973C131.405 -4.48429 131.555 -5.30756 131.555 -6.15578C131.555 -6.41149 131.536 -6.68592 131.524 -6.9541H121.744C121.744 -6.84184 121.725 -6.73581 121.725 -6.62978C121.725 -6.74205 121.744 -6.84807 121.744 -6.9541H96.9026C96.9026 -6.84184 96.9213 -6.73581 96.9213 -6.62978C96.9213 -6.74205 96.9026 -6.84807 96.9026 -6.9541H85.3394C85.3207 -6.73581 85.2708 -6.51128 85.2708 -6.29923C85.2708 -2.6257 87.092 0.748462 90.3601 3.31806C90.5597 6.97288 90.9838 10.5529 91.6387 14.033C94.6573 13.9707 97.2394 13.9021 98.9234 13.8584C99.1728 13.8522 99.2165 14.189 98.9733 14.2389C97.3517 14.5944 94.8756 15.1432 91.9817 15.8043C94.4827 27.6544 99.5533 38.2946 106.451 46.8703C116.786 39.6604 124.782 27.7542 128.673 13.4218L128.667 13.4281Z" fill="#00B8E4"/>
<path d="M121.744 -6.9541H131.524C131.536 -6.68592 131.555 -6.41149 131.555 -6.15578C131.555 -5.30756 131.405 -4.48429 131.168 -3.67973C130.969 2.28274 130.133 8.03316 128.667 13.4281L128.673 13.4218C124.782 27.7542 116.786 39.6604 106.451 46.8703C99.5533 38.2946 94.4827 27.6544 91.9817 15.8043C94.8756 15.1432 97.3517 14.5944 98.9733 14.2389C99.2165 14.189 99.1728 13.8522 98.9234 13.8584C97.2394 13.9021 94.6573 13.9707 91.6387 14.033C90.9838 10.5529 90.5597 6.97288 90.3601 3.31806C87.092 0.748462 85.2708 -2.6257 85.2708 -6.29923C85.2708 -6.51128 85.3207 -6.73581 85.3394 -6.9541H96.9026M121.744 -6.9541C121.744 -6.84184 121.725 -6.73581 121.725 -6.62978C121.725 -6.74205 121.744 -6.84807 121.744 -6.9541ZM121.744 -6.9541H96.9026M96.9026 -6.9541C96.9026 -6.84184 96.9213 -6.73581 96.9213 -6.62978C96.9213 -6.74205 96.9026 -6.84807 96.9026 -6.9541Z" stroke="#010101" stroke-width="0.25" stroke-miterlimit="10"/>
<path d="M79.1524 -6.03101L81.0859 -6.2493C81.1919 -6.26177 81.2917 -6.26177 81.3977 -6.25553L81.8904 -6.22435C82.2709 -6.1994 82.6451 -6.28672 82.9819 -6.48006L84.7594 -7.47797C86.275 -8.33242 87.9776 -8.769 89.699 -8.73782C93.2416 -8.67545 99.4722 -7.70249 106.264 -2.70674C113.611 2.70064 116.642 10.634 117.229 12.3429C117.31 12.5799 117.416 12.8044 117.541 13.0165L118.682 14.9437C118.956 15.4052 119.106 15.9416 119.106 16.4842L117.821 16.5091C117.821 16.5091 107.381 16.6526 96.1916 11.4385C88.9631 8.06437 84.0297 -0.448987 82.5391 -3.29301C82.2085 -3.92294 81.722 -4.44684 81.1295 -4.80858L79.1462 -6.03101H79.1524Z" fill="#E2C530" stroke="#010101" stroke-width="0.25" stroke-miterlimit="10"/>
<path d="M116.836 17.2824C117.428 17.2824 117.909 16.777 117.909 16.1535C117.909 15.5301 117.428 15.0247 116.836 15.0247C116.243 15.0247 115.763 15.5301 115.763 16.1535C115.763 16.777 116.243 17.2824 116.836 17.2824Z" fill="#F499C1" stroke="#010101" stroke-width="0.25" stroke-miterlimit="10"/>
</g>
<path d="M154.893 162.153L154.893 -274.467H-13.4593L-13.4593 162.153H154.893Z" stroke="#010101" stroke-width="0.25" stroke-miterlimit="10"/>
</g>
<path d="M78.248 0.124756H91.4952L97.0834 6.89179L102.672 0.124756H115.919V32.6439H102.26V16.3594L97.0834 22.6462L91.9068 16.3594V32.6439H78.248V0.124756Z" stroke="#010101" stroke-width="0.25" stroke-miterlimit="10"/>
</g>
<defs>
<clipPath id="clip0_77_16">
<rect width="116" height="33.2489" fill="white"/>
</clipPath>
</defs>
</svg>
