<svg width="1440" height="158" viewBox="0 0 1440 158" fill="none" xmlns="http://www.w3.org/2000/svg">
<path d="M-122.092 157.814L-102.942 40.9651L-82.9936 40.4743L-99.1375 139.637L-53.7385 138.52L-56.5728 156.202L-122.092 157.814Z" fill="url(#paint0_linear_134_279)" fill-opacity="0.05"/>
<path d="M14.2629 36.1822C45.2168 35.4207 60.3646 56.6315 61.0183 83.2062C61.5278 103.914 54.6597 125.494 41.4013 139.115C31.1661 149.727 17.2177 156.286 0.536996 156.697C-29.557 157.437 -45.7494 135.734 -46.3862 109.849C-46.8956 89.1418 -39.5201 67.2043 -25.922 53.4016C-15.8545 42.9666 -1.38602 36.5672 14.2629 36.1822ZM12.2714 53.1527C3.32918 53.3727 -4.31589 57.3594 -10.3538 63.724C-20.2493 74.1549 -25.4572 93.2764 -25.0879 108.289C-24.6548 125.891 -16.5598 140.196 3.04437 139.714C11.4707 139.506 19.292 135.688 25.3299 129.323C34.8857 119.073 40.0724 99.089 39.7116 84.4211C39.3337 69.063 33.5952 52.6281 12.2714 53.1527Z" fill="url(#paint1_linear_134_279)" fill-opacity="0.05"/>
<path d="M115.294 151.974L92.4222 152.537L75.2876 36.5802L95.7516 36.0768L104.033 99.9328C105.706 111.978 106.623 121.28 107.385 131.276L107.729 131.267C111.279 121.683 115.487 110.874 121.209 98.6469L150.609 34.7272L172.792 34.1814L115.294 151.974Z" fill="url(#paint2_linear_134_279)" fill-opacity="0.05"/>
<path d="M240.876 80.1627L238.025 97.1543L196.409 98.1781L190.728 133.024L237.503 131.873L234.656 149.037L167.761 150.683L186.911 33.8341L251.226 32.2518L248.379 49.4159L204.184 50.5032L199.089 81.1908L240.876 80.1627Z" fill="url(#paint3_linear_134_279)" fill-opacity="0.05"/>
<path d="M303.282 30.9711L323.23 30.4803L304.08 147.33L284.132 147.82L303.282 30.9711Z" fill="url(#paint4_linear_134_279)" fill-opacity="0.05"/>
<path d="M349.111 146.222L365.255 47.0585L333.269 47.8454L336.276 30.1594L420.711 28.0821L417.705 45.7682L385.375 46.5635L369.231 145.727L349.111 146.222Z" fill="url(#paint5_linear_134_279)" fill-opacity="0.05"/>
<path d="M414.255 146.346C407.204 146.519 402.257 141.288 402.083 134.213C401.884 126.103 407.565 119.229 415.819 119.026C423.042 118.848 428.161 124.075 428.343 131.495C428.547 139.778 422.681 146.138 414.255 146.346Z" fill="url(#paint6_linear_134_279)" fill-opacity="0.05"/>
<path d="M453.903 143.644L470.047 44.4804L438.061 45.2673L441.067 27.5813L525.503 25.504L522.496 43.1901L490.167 43.9854L474.023 143.149L453.903 143.644Z" fill="url(#paint7_linear_134_279)" fill-opacity="0.05"/>
<path d="M573.522 107.548L537.065 108.445L522.059 141.967L500.735 142.491L555.998 24.7537L581.105 24.136L598.584 140.084L577.604 140.6L573.522 107.548ZM543.045 92.7581L571.936 92.0474L567.955 63.1371C567.286 56.9375 566.378 47.9812 565.692 41.0913L565.348 41.0998C562.427 48.2511 559.531 56.4377 556.433 63.4206L543.045 92.7581Z" fill="url(#paint8_linear_134_279)" fill-opacity="0.05"/>
<path d="M608.694 133.447L615.165 116.711C621.806 120.865 631.168 123.742 641.486 123.489C652.664 123.214 662.661 116.924 662.385 105.708C662.199 98.1148 657.084 93.0606 645.758 87.2958C632.166 80.3782 621.795 71.4819 621.451 57.5043C620.904 35.2437 639.824 20.9648 663.212 20.3894C676.109 20.0721 684.612 22.9709 689.151 25.6219L683.024 42.3488C679.19 40.3711 671.37 37.2828 662.088 37.6838C649.191 38.0011 642.151 45.599 642.342 53.3643C642.537 61.3023 649.191 65.9733 660.173 71.7464C674.457 78.8197 683.113 87.9308 683.461 102.081C684.034 125.377 665.47 140.165 639.675 140.8C625.57 140.974 613.95 137.289 608.694 133.447Z" fill="url(#paint9_linear_134_279)" fill-opacity="0.05"/>
<path d="M717.058 137.169L733.202 38.0063L701.216 38.7932L704.222 21.1071L788.658 19.0298L785.651 36.7159L753.322 37.5113L737.178 136.674L717.058 137.169Z" fill="url(#paint10_linear_134_279)" fill-opacity="0.05"/>
<path d="M856.024 65.0287L853.173 82.0203L811.557 83.0442L805.876 117.89L852.65 116.739L849.803 133.904L782.909 135.549L802.059 18.7001L866.374 17.1178L863.527 34.282L819.332 35.3693L814.236 66.0568L856.024 65.0287Z" fill="url(#paint11_linear_134_279)" fill-opacity="0.05"/>
<path d="M918.43 15.8371L938.378 15.3464L919.228 132.196L899.28 132.686L918.43 15.8371Z" fill="url(#paint12_linear_134_279)" fill-opacity="0.05"/>
<path d="M964.259 131.088L980.403 31.9246L948.417 32.7115L951.423 15.0254L1035.86 12.9481L1032.85 30.6342L1000.52 31.4296L984.379 130.593L964.259 131.088Z" fill="url(#paint13_linear_134_279)" fill-opacity="0.05"/>
<path d="M1029.4 131.212C1022.35 131.385 1017.41 126.154 1017.23 119.079C1017.03 110.969 1022.71 104.095 1030.97 103.892C1038.19 103.714 1043.31 108.941 1043.49 116.361C1043.69 124.644 1037.83 131.004 1029.4 131.212Z" fill="url(#paint14_linear_134_279)" fill-opacity="0.05"/>
<path d="M1059.5 128.744L1078.65 11.8953L1142.45 10.3257L1139.6 27.4899L1095.93 28.5645L1090.37 61.508L1130.95 60.5096L1128.1 77.5012L1087.69 78.4954L1079.62 128.249L1059.5 128.744Z" fill="url(#paint15_linear_134_279)" fill-opacity="0.05"/>
<path d="M1216.75 56.1541L1213.9 73.1457L1172.28 74.1695L1166.6 109.016L1213.38 107.865L1210.53 125.029L1143.63 126.675L1162.78 9.82549L1227.1 8.2432L1224.25 25.4073L1180.06 26.4946L1174.96 57.1822L1216.75 56.1541Z" fill="url(#paint16_linear_134_279)" fill-opacity="0.05"/>
<path d="M1302.06 54.0553L1299.21 71.0469L1257.59 72.0707L1251.91 106.917L1298.69 105.766L1295.84 122.93L1228.95 124.576L1248.1 7.72665L1312.41 6.14436L1309.56 23.3085L1265.37 24.3958L1260.27 55.0833L1302.06 54.0553Z" fill="url(#paint17_linear_134_279)" fill-opacity="0.05"/>
<path d="M1314.43 122.473L1333.58 5.62358L1353.53 5.13282L1337.38 104.296L1382.78 103.179L1379.95 120.861L1314.43 122.473Z" fill="url(#paint18_linear_134_279)" fill-opacity="0.05"/>
<path d="M1444.74 2.88878L1464.69 2.39801L1445.54 119.247L1425.59 119.738L1444.74 2.88878Z" fill="url(#paint19_linear_134_279)" fill-opacity="0.05"/>
<path d="M1490.57 118.139L1506.71 18.9762L1474.73 19.7631L1477.73 2.07708L1562.17 -0.000216111L1559.16 17.6859L1526.83 18.4812L1510.69 117.644L1490.57 118.139Z" fill="url(#paint20_linear_134_279)" fill-opacity="0.05"/>
<defs>
<linearGradient id="paint0_linear_134_279" x1="-130.071" y1="25.6322" x2="101.706" y2="546.142" gradientUnits="userSpaceOnUse">
<stop stop-color="white"/>
<stop offset="1" stop-color="#999999"/>
</linearGradient>
<linearGradient id="paint1_linear_134_279" x1="-130.071" y1="25.6322" x2="101.706" y2="546.142" gradientUnits="userSpaceOnUse">
<stop stop-color="white"/>
<stop offset="1" stop-color="#999999"/>
</linearGradient>
<linearGradient id="paint2_linear_134_279" x1="-130.071" y1="25.6322" x2="101.706" y2="546.142" gradientUnits="userSpaceOnUse">
<stop stop-color="white"/>
<stop offset="1" stop-color="#999999"/>
</linearGradient>
<linearGradient id="paint3_linear_134_279" x1="-130.071" y1="25.6322" x2="101.706" y2="546.142" gradientUnits="userSpaceOnUse">
<stop stop-color="white"/>
<stop offset="1" stop-color="#999999"/>
</linearGradient>
<linearGradient id="paint4_linear_134_279" x1="-130.071" y1="25.6322" x2="101.706" y2="546.142" gradientUnits="userSpaceOnUse">
<stop stop-color="white"/>
<stop offset="1" stop-color="#999999"/>
</linearGradient>
<linearGradient id="paint5_linear_134_279" x1="-130.071" y1="25.6322" x2="101.706" y2="546.142" gradientUnits="userSpaceOnUse">
<stop stop-color="white"/>
<stop offset="1" stop-color="#999999"/>
</linearGradient>
<linearGradient id="paint6_linear_134_279" x1="-130.071" y1="25.6322" x2="101.706" y2="546.142" gradientUnits="userSpaceOnUse">
<stop stop-color="white"/>
<stop offset="1" stop-color="#999999"/>
</linearGradient>
<linearGradient id="paint7_linear_134_279" x1="-130.071" y1="25.6322" x2="101.706" y2="546.142" gradientUnits="userSpaceOnUse">
<stop stop-color="white"/>
<stop offset="1" stop-color="#999999"/>
</linearGradient>
<linearGradient id="paint8_linear_134_279" x1="-130.071" y1="25.6322" x2="101.706" y2="546.142" gradientUnits="userSpaceOnUse">
<stop stop-color="white"/>
<stop offset="1" stop-color="#999999"/>
</linearGradient>
<linearGradient id="paint9_linear_134_279" x1="-130.071" y1="25.6322" x2="101.706" y2="546.142" gradientUnits="userSpaceOnUse">
<stop stop-color="white"/>
<stop offset="1" stop-color="#999999"/>
</linearGradient>
<linearGradient id="paint10_linear_134_279" x1="-130.071" y1="25.6322" x2="101.706" y2="546.142" gradientUnits="userSpaceOnUse">
<stop stop-color="white"/>
<stop offset="1" stop-color="#999999"/>
</linearGradient>
<linearGradient id="paint11_linear_134_279" x1="-130.071" y1="25.6322" x2="101.706" y2="546.142" gradientUnits="userSpaceOnUse">
<stop stop-color="white"/>
<stop offset="1" stop-color="#999999"/>
</linearGradient>
<linearGradient id="paint12_linear_134_279" x1="-130.071" y1="25.6322" x2="101.706" y2="546.142" gradientUnits="userSpaceOnUse">
<stop stop-color="white"/>
<stop offset="1" stop-color="#999999"/>
</linearGradient>
<linearGradient id="paint13_linear_134_279" x1="-130.071" y1="25.6322" x2="101.706" y2="546.142" gradientUnits="userSpaceOnUse">
<stop stop-color="white"/>
<stop offset="1" stop-color="#999999"/>
</linearGradient>
<linearGradient id="paint14_linear_134_279" x1="-130.071" y1="25.6322" x2="101.706" y2="546.142" gradientUnits="userSpaceOnUse">
<stop stop-color="white"/>
<stop offset="1" stop-color="#999999"/>
</linearGradient>
<linearGradient id="paint15_linear_134_279" x1="-130.071" y1="25.6322" x2="101.706" y2="546.142" gradientUnits="userSpaceOnUse">
<stop stop-color="white"/>
<stop offset="1" stop-color="#999999"/>
</linearGradient>
<linearGradient id="paint16_linear_134_279" x1="-130.071" y1="25.6322" x2="101.706" y2="546.142" gradientUnits="userSpaceOnUse">
<stop stop-color="white"/>
<stop offset="1" stop-color="#999999"/>
</linearGradient>
<linearGradient id="paint17_linear_134_279" x1="-130.071" y1="25.6322" x2="101.706" y2="546.142" gradientUnits="userSpaceOnUse">
<stop stop-color="white"/>
<stop offset="1" stop-color="#999999"/>
</linearGradient>
<linearGradient id="paint18_linear_134_279" x1="-130.071" y1="25.6322" x2="101.706" y2="546.142" gradientUnits="userSpaceOnUse">
<stop stop-color="white"/>
<stop offset="1" stop-color="#999999"/>
</linearGradient>
<linearGradient id="paint19_linear_134_279" x1="-130.071" y1="25.6322" x2="101.706" y2="546.142" gradientUnits="userSpaceOnUse">
<stop stop-color="white"/>
<stop offset="1" stop-color="#999999"/>
</linearGradient>
<linearGradient id="paint20_linear_134_279" x1="-130.071" y1="25.6322" x2="101.706" y2="546.142" gradientUnits="userSpaceOnUse">
<stop stop-color="white"/>
<stop offset="1" stop-color="#999999"/>
</linearGradient>
</defs>
</svg>
